 <svg class='logout-icon' viewBox="0 0 512.02 512.02" id="logout" width="100%" height="100%">
                <path
                    d="M507.18 248.2c.2-.24.38-.5.57-.76.23-.3.47-.6.68-.91.2-.3.37-.62.56-.93.17-.3.35-.57.5-.86.18-.32.32-.65.48-.97.14-.31.3-.61.42-.93.13-.31.24-.63.35-.95.12-.34.25-.67.36-1.02.1-.32.17-.64.25-.97l.26-1.05c.07-.38.11-.75.17-1.13.04-.31.1-.62.13-.93.14-1.4.14-2.82 0-4.22-.03-.31-.09-.62-.13-.93-.06-.38-.1-.75-.17-1.13l-.26-1.05c-.08-.33-.15-.65-.25-.97-.1-.35-.24-.68-.36-1.01-.11-.32-.22-.65-.35-.96-.13-.32-.28-.62-.42-.92-.16-.33-.3-.66-.47-.97-.16-.3-.34-.58-.5-.86-.2-.31-.37-.63-.57-.93-.21-.32-.45-.62-.68-.92-.19-.25-.36-.51-.57-.76-.44-.54-.9-1.06-1.4-1.55v-.01l-64-64a21.33 21.33 0 0 0-30.18 30.17l27.58 27.58H320.02a21.33 21.33 0 1 0 0 42.66h119.16L411.6 283.6a21.33 21.33 0 0 0 30.17 30.17l64-64 .01-.02c.5-.49.96-1 1.4-1.55z">
                </path>
                <path
                    d="M362.69 298.67a21.33 21.33 0 0 0-21.34 21.34v106.66h-85.33V85.34c0-9.42-6.18-17.73-15.2-20.44L166.7 42.67h174.64v106.67a21.33 21.33 0 1 0 42.67 0v-128A21.33 21.33 0 0 0 362.69 0H21.35c-.63 0-1.26.03-1.88.08C9.7.83 3.31 7.26 1 14.95c-.15.48-.28.97-.4 1.46l-.03.16c-.12.5-.21 1.02-.3 1.55l-.02.22a21.4 21.4 0 0 0-.22 3.82V448a21.33 21.33 0 0 0 17.15 20.92L230.5 511.6a21.33 21.33 0 0 0 25.52-20.92v-21.34h106.67A21.33 21.33 0 0 0 384.02 448V320a21.33 21.33 0 0 0-21.33-21.34zM213.35 464.66L42.7 430.52V50.02l170.66 51.2v363.44z">
                </path>
            </svg>